<svg version="1" xmlns="http://www.w3.org/2000/svg" width="960" height="960" viewBox="0 0 720.000000 720.000000"><path d="M400.5 1.3c-3.2.8-6.6 1-9.5.5-14.5-2.6-32.1 8-38.2 23l-2.3 5.7-.3 200.2c-.1 110.2-.6 200.3-1 200.3s-4.3-1.2-8.6-2.6c-26-8.2-61.9-9.1-95.4-2.3-31.7 6.4-64.9 20.5-93.8 39.8C109.2 494 79.6 530 66.5 569.4c-5.3 15.8-6.8 26.5-6.2 44.1.9 24.7 7.5 42.8 22.3 61.3 17.6 22.1 42.9 36.2 76.9 42.9 14.1 2.8 52.8 2.5 69-.4 52.1-9.6 101.1-34.5 137.6-70.1 29.8-28.9 46.5-57.5 54.5-93.4 2.4-11 2.4-11.6 2.4-62.5 0-48.2.1-51.3 1.8-51.3.9 0 6 .9 11.2 2 35.2 7.4 68.9 26.2 97 54.1 23.8 23.7 42.1 50.2 61.1 88.4 13 26.4 21.6 48.1 34.6 87.5 9.2 27.9 11.1 33 13.9 35.8 4.2 4.2 9.8 4.5 13.7.6 6.3-6.3 6.3-21.7.1-50.6C618.7 482 556.2 367 476.1 325.6c-14.6-7.5-38.9-14.6-50.2-14.6H423v-13.5c0-9.4.3-13.5 1.1-13.5.7 0 6.3 1.2 12.7 2.6 53 11.9 96.7 44.4 132.6 98.9 24.5 37.1 40.9 73.4 60.6 134.6 4.5 14 9.1 27.1 10.3 29.1 1.8 3.4 6.7 6.8 9.7 6.8.6 0 2.4-.7 4-1.5 4.8-2.5 6.2-6.6 6.8-19 .4-10.1.1-12.5-3.7-30.3-17.9-83-40-150.2-67-204.2-13.7-27.4-28.7-51.5-44.2-71.1-11.5-14.5-32.4-35.1-45.4-44.7-11.7-8.7-29.3-18.3-41.5-22.7-8.9-3.1-23.9-6.5-29.5-6.5-6.5-.1-6.6-.2-6.3-14.7l.3-13 11.5 2.3c53.1 10.7 98.6 44.6 135.5 100.9 23.9 36.5 41.2 75.3 60.4 135.8 9.1 28.6 10.7 31.4 17.8 32.4 5.5.7 9.8-2.9 11.2-9.8 2.2-9.9 1.4-20.9-3-41.2C627 209.5 582.8 109.2 526 51.9c-25.2-25.4-49.6-40.5-78.1-48.5-8-2.2-11.9-2.7-25.9-3-11.1-.2-18.1.1-21.5.9z"/></svg>